<svg width="24" height="24" viewBox="0 0 24 24" fill="none" xmlns="http://www.w3.org/2000/svg">
<g id="2318443_delivery_equipmentrental_fast truck_speeding truck_icon 1">
<g id="Group">
<g id="Group_2">
<path id="Vector" d="M22.5125 17.2803H19.8869V15.9651H21.1973V12.13L20.0693 8.74116H15.2837V15.9651H15.9413V17.2803H13.9733V7.42596H21.0149L22.5125 11.9188V17.2803Z" fill="#00A3FF"/>
</g>
<g id="Group_3">
<path id="Vector_2" d="M17.9132 19.2528C16.4636 19.2528 15.2828 18.072 15.2828 16.6224C15.2828 15.1728 16.4636 13.992 17.9132 13.992C19.3628 13.992 20.5436 15.1728 20.5436 16.6224C20.5388 18.072 19.3628 19.2528 17.9132 19.2528ZM17.9132 15.3072C17.1884 15.3072 16.598 15.8976 16.598 16.6224C16.598 17.3472 17.1884 17.9376 17.9132 17.9376C18.638 17.9376 19.2284 17.3472 19.2284 16.6224C19.2284 15.8976 18.638 15.3072 17.9132 15.3072Z" fill="#00A3FF"/>
</g>
<g id="Group_4">
<path id="Vector_3" d="M5.42846 17.2803H2.80286V12.6819H4.11326V15.9651H5.42846V17.2803Z" fill="#00A3FF"/>
</g>
<g id="Group_5">
<path id="Vector_4" d="M15.2832 17.2801H9.36964V15.9649H13.9728V6.11049H1.48804V4.79529H15.2832V17.2801Z" fill="#00A3FF"/>
</g>
<g id="Group_6">
<path id="Vector_5" d="M7.40127 19.2528C5.95167 19.2528 4.77087 18.072 4.77087 16.6224C4.77087 15.1728 5.95167 13.992 7.40127 13.992C8.85087 13.992 10.0317 15.1728 10.0317 16.6224C10.0269 18.072 8.85087 19.2528 7.40127 19.2528ZM7.40127 15.3072C6.67647 15.3072 6.08607 15.8976 6.08607 16.6224C6.08607 17.3472 6.67647 17.9376 7.40127 17.9376C8.12607 17.9376 8.71647 17.3472 8.71647 16.6224C8.71647 15.8976 8.12607 15.3072 7.40127 15.3072Z" fill="#00A3FF"/>
</g>
<g id="Group_7">
<path id="Vector_6" d="M8.06021 7.42596H2.14661V8.74116H8.06021V7.42596Z" fill="#00A3FF"/>
</g>
<g id="Group_8">
<path id="Vector_7" d="M6.74365 10.0513H2.80286V11.3665H6.74365V10.0513Z" fill="#00A3FF"/>
</g>
</g>
</g>
</svg>
