<svg width="24" height="24" viewBox="0 0 24 24" fill="none" xmlns="http://www.w3.org/2000/svg">
<g id="372902_user_name_round_username_linecon_icon 2" clip-path="url(#clip0_2_18011)">
<g id="Group">
<g id="Group_2">
<path id="Vector" d="M11.9999 11.9402C13.4038 11.9402 14.5419 10.8021 14.5419 9.39817C14.5419 7.99426 13.4038 6.85617 11.9999 6.85617C10.596 6.85617 9.45789 7.99426 9.45789 9.39817C9.45789 10.8021 10.596 11.9402 11.9999 11.9402Z" fill="#00A3FF"/>
<path id="Vector_2" d="M15.4715 12.8445H8.52798C8.07598 12.8445 7.70898 13.211 7.70898 13.6635V18.832C8.95948 19.609 10.4305 20.0655 12.0115 20.0655C13.5825 20.0655 15.0445 19.6145 16.291 18.846V13.6635C16.291 13.2115 15.924 12.8445 15.4715 12.8445Z" fill="#00A3FF"/>
</g>
<path id="Vector_3" d="M12 0C5.3725 0 0 5.3725 0 12C0 18.6275 5.3725 24 12 24C18.6275 24 24 18.6275 24 12C24 5.3725 18.6275 0 12 0ZM12.0145 21.922C6.503 21.922 2.035 17.454 2.035 11.9425C2.035 6.431 6.503 1.963 12.0145 1.963C17.526 1.963 21.994 6.431 21.994 11.9425C21.994 17.454 17.526 21.922 12.0145 21.922Z" fill="#00A3FF"/>
</g>
</g>
<defs>
<clipPath id="clip0_2_18011">
<rect width="24" height="24" fill="white"/>
</clipPath>
</defs>
</svg>
